{"title":"Michael Jackson This Is It DVD NORARS","uid":5226595,"size":687506676,"categoryP":"video","categoryS":"movies","magnet":"?xt=urn:btih:ef58c5d0fabe742f5a961bd00324592daeb9567d&amp;dn=Michael+Jackson+This+Is+It+DVD+NORARS&amp;tr=udp%3A%2F%2Ftracker.openbittorrent.com%3A80&amp;tr=udp%3A%2F%2Fopen.demonii.com%3A1337&amp;tr=udp%3A%2F%2Ftracker.coppersurfer.tk%3A6969&amp;tr=udp%3A%2F%2Fexodus.desync.com%3A6969","seeders":0,"leechers":0,"uploader":"IwannaFan2","files":1,"time":1261151752,"description":"Video\nID                               : 0\nFormat                           : MPEG-4 Visual\nFormat settings, BVOP            : Yes\nFormat settings, QPel            : No\nFormat settings, GMC             : No warppoints\nFormat settings, Matrix          : Default (H.263)\nCodec ID                         : DX50\nCodec ID/Hint                    : DivX 5\nDuration                         : 1h 51mn\nBit rate                         : 682 Kbps\nWidth                            : 640 pixels\nHeight                           : 480 pixels\nDisplay aspect ratio             : 4:3\nFrame rate                       : 30.000 fps\nResolution                       : 24 bits\nColorimetry                      : 4:2:0\nScan type                        : Progressive\nBits/(Pixel*Frame)               : 0.074\nStream size                      : 544 MiB (83%)\nWriting library                  : DivX 2151n\n\nAudio\nID                               : 1\nFormat                           : MPEG Audio\nFormat version                   : Version 1\nFormat profile                   : Layer 3\nCodec ID                         : 55\nCodec ID/Hint                    : MP3\nDuration                         : 1h 51mn\nBit rate mode                    : Constant\nBit rate                         : 128 Kbps\nChannel(s)                       : 2 channels\nSampling rate                    : 48.0 KHz\nResolution                       : 16 bits\nStream size                      : 102 MiB (16%)\nAlignment                        : Aligned on interleaves\nInterleave, duration             : 33 ms (1.00 video frame)","torrent":{"xt":"urn:btih:ef58c5d0fabe742f5a961bd00324592daeb9567d","amp;dn":"Michael+Jackson+This+Is+It+DVD+NORARS","amp;tr":["udp%3A%2F%2Ftracker.openbittorrent.com%3A80","udp%3A%2F%2Fopen.demonii.com%3A1337","udp%3A%2F%2Ftracker.coppersurfer.tk%3A6969","udp%3A%2F%2Fexodus.desync.com%3A6969"],"infoHash":"ef58c5d0fabe742f5a961bd00324592daeb9567d","infoHashBuffer":{"type":"Buffer","data":[239,88,197,208,250,190,116,47,90,150,27,208,3,36,89,45,174,185,86,125]},"announce":[],"urlList":[]}}